<svg xmlns="http://www.w3.org/2000/svg" version="1.1" xmlns:xlink="http://www.w3.org/1999/xlink" xmlns:svgjs="http://svgjs.dev/svgjs" viewBox="0 0 7.104933185240407 1.6390967948879982"><g transform="matrix(1,0,0,1,2.4289794037888632,0.2945483974439991)"><g><path d=" M 0.8325 0.7545000000000001 L 0.2235 0.7545000000000001 L 0.09 1.05 L 0.0075 1.05 L 0.4905 0 L 0.5670000000000001 0 L 1.05 1.05 L 0.9675 1.05 L 0.8325 0.7545000000000001 M 0.804 0.6900000000000001 L 0.528 0.08400000000000007 L 0.2535 0.6900000000000001 L 0.804 0.6900000000000001 M 1.3342536621093752 0.9420000000000001 Q 1.224003662109375 0.8265 1.224003662109375 0.6045 L 1.224003662109375 0 L 1.300503662109375 0 L 1.300503662109375 0.6015 Q 1.300503662109375 0.795 1.389003662109375 0.891 Q 1.4775036621093751 0.9870000000000001 1.645503662109375 0.9870000000000001 Q 1.8120036621093751 0.9870000000000001 1.9005036621093752 0.891 Q 1.9890036621093752 0.795 1.9890036621093752 0.6015 L 1.9890036621093752 0 L 2.065503662109375 0 L 2.065503662109375 0.6045 Q 2.065503662109375 0.8265 1.9545036621093752 0.9420000000000001 Q 1.843503662109375 1.0575 1.644003662109375 1.0575 Q 1.4445036621093752 1.0575 1.3342536621093752 0.9420000000000001 M 3.16654833984375 1.05 L 2.9160483398437504 0.6990000000000001 Q 2.86054833984375 0.7065 2.81404833984375 0.7065 L 2.5140483398437503 0.7065 L 2.5140483398437503 1.05 L 2.43754833984375 1.05 L 2.43754833984375 0 L 2.81404833984375 0 Q 3.0120483398437505 0 3.1245483398437504 0.09375 Q 3.23704833984375 0.1875 3.23704833984375 0.354 Q 3.23704833984375 0.47850000000000004 3.1732983398437504 0.56325 Q 3.1095483398437502 0.648 2.99104833984375 0.6825000000000001 L 3.2535483398437504 1.05 L 3.16654833984375 1.05 M 2.81404833984375 0.639 Q 2.9820483398437503 0.639 3.07054833984375 0.5647500000000001 Q 3.1590483398437503 0.49050000000000005 3.1590483398437503 0.354 Q 3.1590483398437503 0.21750000000000003 3.07054833984375 0.14325 Q 2.9820483398437503 0.06900000000000006 2.81404833984375 0.06900000000000006 L 2.5140483398437503 0.06900000000000006 L 2.5140483398437503 0.639 L 2.81404833984375 0.639 M 4.18200439453125 0.7545000000000001 L 3.5730043945312504 0.7545000000000001 L 3.4395043945312502 1.05 L 3.35700439453125 1.05 L 3.8400043945312503 0 L 3.9165043945312505 0 L 4.399504394531251 1.05 L 4.31700439453125 1.05 L 4.18200439453125 0.7545000000000001 M 4.15350439453125 0.6900000000000001 L 3.8775043945312504 0.08400000000000007 L 3.60300439453125 0.6900000000000001 L 4.15350439453125 0.6900000000000001" fill="#574848" fill-rule="nonzero"></path></g><g></g><g clip-path="url(#SvgjsClipPath1001)"><g clip-path="url(#a5647ca48-511c-469f-89ce-e9d94faa01ea3a9c9b36-24cd-4422-8752-a1f215b26f1e)"><path d=" M -1.2972161265383617 1.033508347302735 C -1.2991917932879327 1.033069310247275 -1.3016064970929633 1.032805888013999 -1.3042407194257244 1.0323668509585389 L -1.3075774010472214 1.0317082953753485 C -1.3927505898064905 1.0157712502621452 -1.6629339937366665 0.9501352104708528 -1.7946012066691654 0.7440951203434046 C -1.8562420092557703 0.6472874496144415 -1.878457284262054 0.5337085633669009 -1.8822330029390113 0.4316763516779621 C -2.0350178982391434 0.42965678122284545 -2.160055651634194 0.4710140718471916 -2.160055651634194 0.4710140718471916 C -2.160055651634194 0.4710140718471916 -2.107019975334608 0.8369953612787723 -1.863705639198593 0.9930730344948553 C -1.6312355183324436 1.1423456333513062 -1.3086749936858717 1.0453184440946133 -1.2809278517807905 1.0366694141020483 L -1.2811473703085203 1.036010858518858 C -1.2811473703085203 1.036010858518858 -1.2868548520295024 1.0353083992301217 -1.2972161265383617 1.033508347302735" fill="#ede8e8" transform="matrix(1,0,0,1,0,0)" fill-rule="nonzero"></path></g><g clip-path="url(#a5647ca48-511c-469f-89ce-e9d94faa01ea3a9c9b36-24cd-4422-8752-a1f215b26f1e)"><path d=" M -1.5439988554125117 0.5360354597608397 C -1.544437892467972 0.5312499558563241 -1.544657410995702 0.5265083556573544 -1.5448769295234321 0.5217228517528388 C -1.5453159665788923 0.5135567625212801 -1.5455354851066223 0.5053467695841752 -1.5453159665788923 0.49696116182488637 C -1.5442183739402418 0.4183296251919736 -1.523978765683529 0.34404455540811635 -1.494694994084337 0.2772670192726276 C -1.5001829572775889 0.27362301171230835 -1.5054514019431107 0.27002290785753513 -1.5109832688419087 0.26659841882494595 C -1.6717147348458694 0.16482962936928322 -1.8515882164678925 0.14186799136871747 -1.8515882164678925 0.14186799136871747 C -1.8515882164678925 0.14186799136871747 -1.8742425285296362 0.22208006140128678 -1.8810915065948146 0.33315643643270465 C -1.8828476548166553 0.3613426153932462 -1.8837257289275755 0.3917678833366346 -1.8826281362889252 0.4233346476242193 C -1.8826281362889252 0.42605667736807223 -1.8824086177611952 0.4287787071119252 -1.8821890992334651 0.43176415908905424 C -1.7826593987606492 0.4329056554332506 -1.671275697790409 0.45244280440122725 -1.5752582937612745 0.5139957995767401 C -1.5644579821969549 0.5210203924641026 -1.5541406113936413 0.5283084075847411 -1.5439988554125117 0.5360354597608397" fill="#ede8e8" transform="matrix(1,0,0,1,0,0)" fill-rule="nonzero"></path></g><g clip-path="url(#a5647ca48-511c-469f-89ce-e9d94faa01ea3a9c9b36-24cd-4422-8752-a1f215b26f1e)"><path d=" M -1.3075334973416752 1.0317521990808947 L -1.3042407194257242 1.0324107546640848 C -1.3016064970929633 1.032893695425091 -1.2991478895823865 1.033113213952821 -1.297172222832816 1.033552251008281 C -1.2868548520295024 1.035396206641214 -1.2811034666029744 1.036054762224404 -1.2811034666029744 1.036054762224404 L -1.2826400962970848 1.033113213952821 L -1.2832986518802751 1.0324107546640848 L -1.2843962445189254 1.0310497397921583 C -1.3147776087567677 1.0022050052484264 -1.4687040004010963 0.8484103247207361 -1.5246373212667192 0.6473752570255336 C -1.5347351735423027 0.6116815444166235 -1.541584151607481 0.5746707206413328 -1.543998855412512 0.5362549782885697 L -1.543998855412512 0.5360354597608397 C -1.5541406113936413 0.528308407584741 -1.5644579821969549 0.5210203924641025 -1.5752582937612747 0.5139957995767401 C -1.6712756977904093 0.4524428044012272 -1.7826593987606492 0.43290565543325044 -1.8821890992334651 0.4317641590890541 C -1.8784572842620537 0.533752467072447 -1.8561981055502241 0.6473752570255336 -1.7945573029636193 0.7441390240489505 C -1.6628900900311203 0.9501791141763987 -1.3927505898064905 1.0158590576732371 -1.3075334973416752 1.0317521990808947" fill="#b9625d" transform="matrix(1,0,0,1,0,0)" fill-rule="nonzero"></path></g><g clip-path="url(#a5647ca48-511c-469f-89ce-e9d94faa01ea3a9c9b36-24cd-4422-8752-a1f215b26f1e)"><path d=" M -1.0808586656076 0.22677775789471022 C -1.159665817062697 0.0754855885831427 -1.271971495849403 -0.025624645289329735 -1.271971495849403 -0.025624645289329735 C -1.271971495849403 -0.025624645289329735 -1.3932774342730427 0.07772467756598946 -1.4760798229328267 0.2333633137266125 C -1.4192684279562835 0.2581250036545649 -1.3659693294234212 0.2894722494144196 -1.3257096314377255 0.3292490066391091 C -1.3076988634523823 0.3468171744443401 -1.292067797242856 0.3666696617453909 -1.2792156072644958 0.38829949059849916 C -1.2664835326561512 0.36511833407020333 -1.2497123171375737 0.34263963683064375 -1.2283751162422103 0.3215219544630105 C -1.1887300701341588 0.2824476565270572 -1.1365724679454932 0.2513199292949326 -1.0808586656076 0.22677775789471022 M -1.2784692442702135 0.28227204170487313 C -1.3171045051507067 0.28227204170487313 -1.3484078472050154 0.2499589144230061 -1.3484078472050154 0.21009434978722455 C -1.3484078472050154 0.170273688856989 -1.3171045051507067 0.137960561575122 -1.2784692442702135 0.137960561575122 C -1.2398339833897203 0.137960561575122 -1.2085306413354115 0.170273688856989 -1.2085306413354115 0.21009434978722455 C -1.2085306413354115 0.2499589144230061 -1.2398339833897203 0.28227204170487313 -1.2784692442702135 0.28227204170487313" fill="#ede8e8" transform="matrix(1,0,0,1,0,0)" fill-rule="nonzero"></path></g><g clip-path="url(#a5647ca48-511c-469f-89ce-e9d94faa01ea3a9c9b36-24cd-4422-8752-a1f215b26f1e)"><path d=" M -1.5448769295234321 0.5216789480472929 C -1.544657410995702 0.5264644519518085 -1.5444378924679718 0.5312060521507781 -1.5439988554125117 0.5359915560552937 L -1.5439988554125117 0.5362110745830238 C -1.4550499479762855 0.6041301070627089 -1.3942872195006006 0.7007182592639418 -1.3539836178093592 0.7908964704554566 C -1.3567310293592163 0.7667585721922079 -1.3581234967655225 0.7424856666675472 -1.3581544698362307 0.7181919340712561 C -1.3581544698362307 0.622086722631029 -1.3350611207190266 0.5359915560552937 -1.3136800161181172 0.47694107209590364 C -1.3165776606841542 0.4710140718471916 -1.3196509200723754 0.4650870715984796 -1.3229436979883265 0.4592039750553136 C -1.327553587070658 0.4508183672960247 -1.3326464169139958 0.4423888558311898 -1.3379148615795176 0.43400324807190105 C -1.3797550929648699 0.3685428231027927 -1.4354688953027628 0.3174389098472313 -1.494694994084337 0.27722311556708157 C -1.523978765683529 0.3440006517025703 -1.5442183739402418 0.4183296251919736 -1.5453159665788923 0.4969172581193404 C -1.5455354851066223 0.5053028658786293 -1.5453159665788923 0.513512858815734 -1.5448769295234321 0.5216789480472929" fill="#b9625d" transform="matrix(1,0,0,1,0,0)" fill-rule="nonzero"></path></g><g clip-path="url(#a5647ca48-511c-469f-89ce-e9d94faa01ea3a9c9b36-24cd-4422-8752-a1f215b26f1e)"><path d=" M -1.5439988554125117 0.5362549782885697 C -1.541584151607481 0.5746268169357868 -1.5347351735423027 0.6116815444166235 -1.5246373212667192 0.6473313533199876 C -1.4687040004010963 0.8484103247207361 -1.3147776087567675 1.0022050052484264 -1.2843962445189252 1.0310497397921583 L -1.283298651880275 1.0324107546640848 L -1.2826400962970848 1.033113213952821 C -1.2958551116664352 1.0072100276806721 -1.3398905283290885 0.9122463125846417 -1.353764099281629 0.7911598926887327 L -1.3539836178093592 0.7909403741610025 C -1.3942872195006009 0.7007182592639418 -1.4550499479762855 0.6041740107682549 -1.5439988554125117 0.5362549782885697" fill="#574848" transform="matrix(1,0,0,1,0,0)" fill-rule="nonzero"></path></g><g clip-path="url(#a5647ca48-511c-469f-89ce-e9d94faa01ea3a9c9b36-24cd-4422-8752-a1f215b26f1e)"><path d=" M -0.9995050992308343 0.5218984665750228 L -0.9997246177585646 0.5239619407356856 L -0.9997246177585646 0.5241814592634156 C -0.9948952101485029 0.5205374517030964 -0.989802380305165 0.5171129626705072 -0.9847534541673733 0.5139518958711942 C -0.8887360501382386 0.4523989006956812 -0.7771328306402685 0.4328617517277045 -0.6776031301674525 0.4317202553835081 L -0.6776031301674525 0.43150073685577806 C -0.6758469819456121 0.3874214164875791 -0.6773836116397225 0.34584460733550293 -0.6808959080834038 0.30835084279920616 C -0.6846557266482469 0.2625868760993092 -0.6914316207483093 0.21712092001664213 -0.7011794200456629 0.17224935560655905 L -0.7011794200456629 0.17202983707882968 C -0.705350272072534 0.15271220663858304 -0.7084235314607552 0.14182408766317137 -0.7084235314607552 0.14182408766317137 L -0.7119358279044363 0.14252654695190764 C -0.7379268215876773 0.1461266508066809 -0.9026096210907792 0.17339085195075615 -1.0503455902531198 0.2676960114635963 C -1.019086151904357 0.33925905150360064 -0.9977489510089939 0.4199101585916301 -0.9988465436476441 0.504644310295439 C -0.9988465436476441 0.510527406838605 -0.9990660621753742 0.516234888559587 -0.9995050992308343 0.5218984665750228" fill="#ede8e8" transform="matrix(1,0,0,1,0,0)" fill-rule="nonzero"></path></g><g clip-path="url(#a5647ca48-511c-469f-89ce-e9d94faa01ea3a9c9b36-24cd-4422-8752-a1f215b26f1e)"><path d=" M -0.9997246177585646 0.5242253629689616 L -0.9997246177585646 0.5240058444412315 L -0.9995050992308343 0.5219423702805688 C -0.9990660621753742 0.516278792265133 -0.9988465436476441 0.510615214249697 -0.9988465436476441 0.504688214000985 C -0.9977489510089939 0.4199540622971761 -1.019086151904357 0.3393029552091466 -1.0503455902531198 0.26773991516914225 C -1.0525846792359663 0.2688814115133386 -1.054560345985537 0.27024242638526513 -1.056755531262838 0.27160344125719155 C -1.1192744079603631 0.3124777911205315 -1.1782809882142073 0.36542566000902554 -1.2218773678214003 0.4340471517774469 C -1.2293608400767553 0.4457778970714795 -1.2363477014767934 0.4578181487922999 -1.2428194353668482 0.4701359977362692 L -1.2428194353668482 0.47039941996954726 L -1.2450146206441501 0.4747019831130568 C -1.2234139975155107 0.533752467072447 -1.1996620928151165 0.6209891299923785 -1.1996620928151165 0.7182358377768018 C -1.1996620928151165 0.7409779572496376 -1.2009792039814973 0.7630176174337371 -1.2031743892587978 0.7845743368568303 C -1.1602365652347952 0.6909716366327263 -1.0954785995544232 0.5912663213377265 -0.9997246177585646 0.5242253629689616" fill="#b9625d" transform="matrix(1,0,0,1,0,0)" fill-rule="nonzero"></path></g><g clip-path="url(#a5647ca48-511c-469f-89ce-e9d94faa01ea3a9c9b36-24cd-4422-8752-a1f215b26f1e)"><path d=" M -0.6776470338729985 0.4317202553835081 L -0.6778665524007284 0.4355837814715574 C -0.6822569229553301 0.5364305931107538 -0.7045161016671595 0.648472849664184 -0.7654983486705744 0.7438756018156745 C -0.9004583395190242 0.9556231736641047 -1.181178632780244 1.0189762207670043 -1.2586686730689602 1.032849791719545 C -1.2613467991072673 1.033288828775005 -1.2639810214400282 1.0337717695360114 -1.2659566881895992 1.0339912880637412 C -1.2686449339830375 1.0345526465054133 -1.2713544779502808 1.0350066781972218 -1.2740788737156112 1.0353523029356677 L -1.2754398885875382 1.035571821463398 L -1.2765374812261887 1.0357913399911278 L -1.2771960368093789 1.0371523548630546 C -1.2390876203954377 1.0489624516549325 -0.9244736664526945 1.1394040850797233 -0.6963500124356008 0.9930730344948555 C -0.45307958000513193 0.8370392649843181 -0.3999999999999997 0.47101407184719146 -0.3999999999999997 0.47101407184719146 C -0.3999999999999997 0.47101407184719146 -0.5250816571005963 0.42965678122284545 -0.6776470338729985 0.4317202553835081" fill="#ede8e8" transform="matrix(1,0,0,1,0,0)" fill-rule="nonzero"></path></g><g clip-path="url(#a5647ca48-511c-469f-89ce-e9d94faa01ea3a9c9b36-24cd-4422-8752-a1f215b26f1e)"><path d=" M -1.2740788737156121 1.0353523029356677 C -1.2721032069660412 1.0351327844079377 -1.2692494661055505 1.0346498436469316 -1.265912784484053 1.0339912880637412 C -1.2639371177344825 1.0337717695360114 -1.2613028954017216 1.033288828775005 -1.2586686730689607 1.032849791719545 C -1.1811786327802443 1.0189762207670043 -0.9004583395190247 0.9556231736641047 -0.7654983486705749 0.7438756018156745 C -0.704472197961614 0.648472849664184 -0.6822569229553304 0.5364744968162999 -0.6778665524007288 0.4355837814715574 L -0.6776470338729987 0.4317202553835081 C -0.7771328306402685 0.4328617517277045 -0.8887799538437848 0.45239890069568117 -0.9847534541673733 0.513951895871194 C -0.9898857891467769 0.51714921958887 -0.9948806379688935 0.5205621221564745 -0.9997246177585646 0.5241814592634157 C -1.0018231613124586 0.5636549102533093 -1.0084071769217426 0.6027613116910037 -1.0193495741376333 0.640745797488086 C -1.0697510281044584 0.8195216864714582 -1.2001011298705766 0.9601452553353441 -1.2544978210420892 1.0133126427515682 C -1.2577905989580405 1.0162541910231513 -1.2606443398185314 1.0192396430002801 -1.2632785621512923 1.021478731983127 C -1.265912784484053 1.0239812431992499 -1.2681518734669 1.0262642358876426 -1.2701275402164707 1.0280642878150292 L -1.2747374292988023 1.0319278139030788 L -1.2764935775206427 1.0357913399911278 L -1.2753959848819925 1.035571821463398 Z" fill="#b9625d" transform="matrix(1,0,0,1,0,0)" fill-rule="nonzero"></path></g><g clip-path="url(#a5647ca48-511c-469f-89ce-e9d94faa01ea3a9c9b36-24cd-4422-8752-a1f215b26f1e)"><path d=" M -0.9997246177585646 0.5242253629689616 C -1.0954785995544232 0.5912663213377265 -1.1602365652347952 0.6909716366327263 -1.2031743892587978 0.7845743368568303 C -1.2161698861004182 0.906802253096936 -1.2604248212908011 1.003829442353629 -1.2747374292988023 1.0319717176086245 L -1.2700836365109247 1.0281081915205754 C -1.268107969761354 1.0263081395931888 -1.265912784484053 1.024025146904796 -1.2632785621512923 1.021522635688673 C -1.2606443398185314 1.0192396430002801 -1.2577466952524945 1.0162980947286973 -1.2544539173365434 1.0133565464571144 C -1.2001011298705766 0.9601891590408902 -1.0697510281044582 0.8195655901770043 -1.019305670432087 0.6407897011936313 C -1.0087687811010435 0.6035154551850647 -1.0017002845081353 0.5646606757768414 -0.9997246177585646 0.5242253629689616" fill="#c5b3b3" transform="matrix(1,0,0,1,0,0)" fill-rule="nonzero"></path></g><g clip-path="url(#a5647ca48-511c-469f-89ce-e9d94faa01ea3a9c9b36-24cd-4422-8752-a1f215b26f1e)"><path d=" M -1.2632785621512923 1.021522635688673 C -1.2606443398185314 1.0192396430002804 -1.2577905989580405 1.0162980947286975 -1.2544539173365434 1.0133565464571144 C -1.2001011298705766 0.9601891590408902 -1.0697510281044584 0.8195655901770044 -1.019305670432087 0.6407457974880855 C -1.0087687811010435 0.6035154551850647 -1.0017002845081353 0.5646606757768415 -0.9997246177585646 0.5242253629689617 C -1.0955225032599691 0.5912224176321805 -1.1602365652347952 0.6909716366327265 -1.2031743892587978 0.7845743368568304 C -1.2161698861004182 0.9068022530969361 -1.2604248212908016 1.0037855386480832 -1.2747374292988023 1.0319717176086247 L -1.2700836365109247 1.0281081915205754 C -1.268107969761354 1.0263081395931888 -1.2659127844840534 1.024025146904796 -1.2632785621512923 1.021522635688673" fill="#574848" transform="matrix(1,0,0,1,0,0)" fill-rule="nonzero"></path></g></g></g><defs><clipPath id="SvgjsClipPath1001"><path d=" M -2.160055651634194 -0.025624645289329617 h 1.7600556516341939 v 1.1012492905786593 h -1.7600556516341939 Z"></path></clipPath><clipPath id="a5647ca48-511c-469f-89ce-e9d94faa01ea3a9c9b36-24cd-4422-8752-a1f215b26f1e"><path d=" M -2.1600556516341936 1.0756559046269094 L -0.40000000000000013 1.0756559046269094 L -0.40000000000000013 -0.025624645289329617 L -2.1600556516341936 -0.025624645289329617 Z"></path></clipPath></defs></svg>