<svg xmlns="http://www.w3.org/2000/svg" version="1.1" xmlns:xlink="http://www.w3.org/1999/xlink" xmlns:svgjs="http://svgjs.dev/svgjs" viewBox="0 0 5.21415374446716 4.502632296117146"><g transform="matrix(1,0,0,1,0.40356185758514274,3.0415704385320033)"><g><path d=" M 0.8325 0.7545000000000001 L 0.2235 0.7545000000000001 L 0.09 1.05 L 0.0075 1.05 L 0.4905 0 L 0.5670000000000001 0 L 1.05 1.05 L 0.9675 1.05 L 0.8325 0.7545000000000001 M 0.804 0.6900000000000001 L 0.528 0.08400000000000007 L 0.2535 0.6900000000000001 L 0.804 0.6900000000000001 M 1.3342536621093752 0.9420000000000001 Q 1.224003662109375 0.8265 1.224003662109375 0.6045 L 1.224003662109375 0 L 1.300503662109375 0 L 1.300503662109375 0.6015 Q 1.300503662109375 0.795 1.389003662109375 0.891 Q 1.4775036621093751 0.9870000000000001 1.645503662109375 0.9870000000000001 Q 1.8120036621093751 0.9870000000000001 1.9005036621093752 0.891 Q 1.9890036621093752 0.795 1.9890036621093752 0.6015 L 1.9890036621093752 0 L 2.065503662109375 0 L 2.065503662109375 0.6045 Q 2.065503662109375 0.8265 1.9545036621093752 0.9420000000000001 Q 1.843503662109375 1.0575 1.644003662109375 1.0575 Q 1.4445036621093752 1.0575 1.3342536621093752 0.9420000000000001 M 3.16654833984375 1.05 L 2.9160483398437504 0.6990000000000001 Q 2.86054833984375 0.7065 2.81404833984375 0.7065 L 2.5140483398437503 0.7065 L 2.5140483398437503 1.05 L 2.43754833984375 1.05 L 2.43754833984375 0 L 2.81404833984375 0 Q 3.0120483398437505 0 3.1245483398437504 0.09375 Q 3.23704833984375 0.1875 3.23704833984375 0.354 Q 3.23704833984375 0.47850000000000004 3.1732983398437504 0.56325 Q 3.1095483398437502 0.648 2.99104833984375 0.6825000000000001 L 3.2535483398437504 1.05 L 3.16654833984375 1.05 M 2.81404833984375 0.639 Q 2.9820483398437503 0.639 3.07054833984375 0.5647500000000001 Q 3.1590483398437503 0.49050000000000005 3.1590483398437503 0.354 Q 3.1590483398437503 0.21750000000000003 3.07054833984375 0.14325 Q 2.9820483398437503 0.06900000000000006 2.81404833984375 0.06900000000000006 L 2.5140483398437503 0.06900000000000006 L 2.5140483398437503 0.639 L 2.81404833984375 0.639 M 4.18200439453125 0.7545000000000001 L 3.5730043945312504 0.7545000000000001 L 3.4395043945312502 1.05 L 3.35700439453125 1.05 L 3.8400043945312503 0 L 3.9165043945312505 0 L 4.399504394531251 1.05 L 4.31700439453125 1.05 L 4.18200439453125 0.7545000000000001 M 4.15350439453125 0.6900000000000001 L 3.8775043945312504 0.08400000000000007 L 3.60300439453125 0.6900000000000001 L 4.15350439453125 0.6900000000000001" fill="#574848" fill-rule="nonzero"></path></g><g></g><g clip-path="url(#SvgjsClipPath1001)"><g clip-path="url(#a041ec5e3-1bb8-45d2-b877-1dbea2537e113724c9c5-26bf-406a-8255-6c1d8d4734f2)"><path d=" M 2.1662429728270007 -0.3413272606394644 C 2.1619588300889045 -0.342279292359041 2.1567226556312313 -0.34285051139078737 2.151010465313769 -0.3438025431103644 L 2.143775024244985 -0.3452305906897295 C 1.9590808706470595 -0.37978934211037263 1.3732005504194142 -0.5221180841871238 1.0876862377182914 -0.9689065701845794 C 0.95402098428969 -1.1788295643512934 0.9058481792790971 -1.4251201702058462 0.8976607064907354 -1.6463723418355258 C 0.5663536680779622 -1.6507516877455797 0.2952150343424511 -1.5610702997614325 0.2952150343424511 -1.5610702997614325 C 0.2952150343424511 -1.5610702997614325 0.41022046606734475 -0.7674566583220999 0.937836445056882 -0.42900938201250005 C 1.441937240572869 -0.10531859735634219 2.1413949449460428 -0.3157176073828447 2.2015633496233047 -0.3344726322585103 L 2.2010873337635166 -0.33590067983787586 C 2.2010873337635166 -0.33590067983787586 2.188710921409016 -0.33742393058919884 2.1662429728270007 -0.3413272606394644" fill="#ede8e8" transform="matrix(1,0,0,1,0,0)" fill-rule="nonzero"></path></g><g clip-path="url(#a041ec5e3-1bb8-45d2-b877-1dbea2537e113724c9c5-26bf-406a-8255-6c1d8d4734f2)"><path d=" M 1.6311059432528061 -1.4200744020920886 C 1.630153911533229 -1.4304515478354771 1.6296778956734406 -1.440733490406908 1.629201879813652 -1.4511106361502966 C 1.6282498480940752 -1.4688184261344275 1.6277738322342867 -1.4866214192905163 1.6282498480940752 -1.5048052251344357 C 1.6306299273930176 -1.6753141061106647 1.6745185896655141 -1.8363978730630817 1.738019105361296 -1.9812018976107335 C 1.7261187088665841 -1.989103760883222 1.714694328231661 -1.996910420983753 1.7026987285649915 -2.004336268396453 C 1.3541599160278759 -2.2250172209943866 0.9641125205172058 -2.27480847992826 0.9641125205172058 -2.27480847992826 C 0.9641125205172058 -2.27480847992826 0.9149876837870359 -2.100872284761554 0.9001359889616358 -1.8600082597085899 C 0.896327862083328 -1.7988878233117507 0.8944237986441742 -1.732912025145069 0.8968038779431164 -1.6644609445074874 C 0.8968038779431164 -1.6585583478461106 0.897279893802905 -1.6526557511847335 0.8977559096626934 -1.6461819354916103 C 1.1135815004907843 -1.6437066530207103 1.3551119477474527 -1.6013412414995367 1.5633212848189282 -1.4678663944148507 C 1.5867412651205208 -1.4526338869016198 1.6091140105305788 -1.4368301603566427 1.6311059432528061 -1.4200744020920886" fill="#ede8e8" transform="matrix(1,0,0,1,0,0)" fill-rule="nonzero"></path></g><g clip-path="url(#a041ec5e3-1bb8-45d2-b877-1dbea2537e113724c9c5-26bf-406a-8255-6c1d8d4734f2)"><path d=" M 2.1438702274169428 -0.34513538751777206 L 2.15101046531377 -0.3437073399384065 C 2.1567226556312313 -0.34266010504687205 2.162054033260862 -0.34218408918708354 2.166338175998958 -0.3412320574675065 C 2.188710921409016 -0.3372335242452835 2.201182536935474 -0.335805476665918 2.201182536935474 -0.335805476665918 L 2.197850425916955 -0.34218408918708354 L 2.1964223783375894 -0.3437073399384065 L 2.194042299038647 -0.34665863826909504 C 2.128161704043923 -0.4092071222453 1.79437938316025 -0.7427038336130998 1.6730905420861486 -1.178639158007378 C 1.651193812535879 -1.2560393368089828 1.6363421177104789 -1.3362956107693182 1.631105943252806 -1.4195983862323 L 1.631105943252806 -1.4200744020920886 C 1.6091140105305786 -1.4368301603566427 1.5867412651205206 -1.4526338869016198 1.563321284818928 -1.4678663944148507 C 1.3551119477474525 -1.601341241499537 1.1135815004907843 -1.6437066530207107 0.8977559096626933 -1.6461819354916107 C 0.9058481792790974 -1.4250249670338886 0.954116187461648 -1.1786391580073783 1.0877814408902495 -0.9688113670126219 C 1.373295753591372 -0.5220228810151664 1.9590808706470595 -0.37959893576645687 2.1438702274169428 -0.34513538751777206" fill="#b9625d" transform="matrix(1,0,0,1,0,0)" fill-rule="nonzero"></path></g><g clip-path="url(#a041ec5e3-1bb8-45d2-b877-1dbea2537e113724c9c5-26bf-406a-8255-6c1d8d4734f2)"><path d=" M 2.635404204234514 -2.0906855453620814 C 2.464514510570454 -2.418755675928293 2.220984796702674 -2.638008580946861 2.220984796702674 -2.638008580946861 C 2.220984796702674 -2.638008580946861 1.9579384325835674 -2.4139003141584503 1.7783852502713575 -2.0764050695684273 C 1.901578154784613 -2.022710480584288 2.0171548055412525 -1.954735415806495 2.1044561142264575 -1.8684813420128248 C 2.1435116385899216 -1.830385575841333 2.1774068887907942 -1.7873363676069856 2.2052762733296545 -1.7404330757297273 C 2.232885193197386 -1.7907003505233892 2.269252804885225 -1.8394443745657283 2.3155215464566634 -1.885237100277379 C 2.4014900107344612 -1.969967923319726 2.5145913790202012 -2.0374669722377305 2.635404204234514 -2.0906855453620814 M 2.2068947272529353 -1.9703487360075567 C 2.1231159359301657 -1.9703487360075567 2.05523607432433 -2.040418270568419 2.05523607432433 -2.126862750706005 C 2.05523607432433 -2.2132120276716325 2.1231159359301657 -2.283281562232495 2.2068947272529353 -2.283281562232495 C 2.290673518575706 -2.283281562232495 2.358553380181541 -2.2132120276716325 2.358553380181541 -2.126862750706005 C 2.358553380181541 -2.040418270568419 2.290673518575706 -1.9703487360075567 2.2068947272529353 -1.9703487360075567" fill="#ede8e8" transform="matrix(1,0,0,1,0,0)" fill-rule="nonzero"></path></g><g clip-path="url(#a041ec5e3-1bb8-45d2-b877-1dbea2537e113724c9c5-26bf-406a-8255-6c1d8d4734f2)"><path d=" M 1.629201879813652 -1.4512058393222542 C 1.6296778956734406 -1.4408286935788657 1.630153911533229 -1.4305467510074348 1.6311059432528061 -1.4201696052640462 L 1.6311059432528061 -1.4196935894042577 C 1.823987569639093 -1.272414282385706 1.9557487596285408 -1.0629673040787804 2.0431452714857032 -0.8674199888776779 C 2.0371876355420704 -0.9197619142453413 2.0341681338330613 -0.9723965966676513 2.034100970149722 -1.0250764416396174 C 2.034100970149722 -1.2334761850550093 2.0841778385994694 -1.4201696052640462 2.130541783342866 -1.5482178715471437 C 2.1242583739936585 -1.5610702997614325 2.1175941519566193 -1.5739227279757209 2.110453914059793 -1.586679953018052 C 2.1004575810042345 -1.6048637588619714 2.0894140130571426 -1.6231427678778485 2.077989632422219 -1.6413265737217677 C 1.9872610095465373 -1.7832745031106887 1.8664481843322243 -1.894090995269444 1.7380191053612957 -1.9812971007826912 C 1.6745185896655144 -1.8364930762350395 1.6306299273930176 -1.6753141061106647 1.6282498480940752 -1.5049004283063934 C 1.6277738322342867 -1.4867166224624737 1.6282498480940752 -1.4689136293063851 1.629201879813652 -1.4512058393222542" fill="#b9625d" transform="matrix(1,0,0,1,0,0)" fill-rule="nonzero"></path></g><g clip-path="url(#a041ec5e3-1bb8-45d2-b877-1dbea2537e113724c9c5-26bf-406a-8255-6c1d8d4734f2)"><path d=" M 1.6311059432528061 -1.4195983862323 C 1.636342117710479 -1.3363908139412761 1.6511938125358794 -1.2560393368089828 1.6730905420861488 -1.1787343611793357 C 1.7943793831602504 -0.7427038336130998 2.1281617040439236 -0.4092071222453 2.1940422990386477 -0.34665863826909504 L 2.19642237833759 -0.3437073399384065 L 2.197850425916955 -0.34218408918708354 C 2.1691942711576893 -0.3983539606421225 2.073705489684123 -0.6042784215866135 2.0436212873454913 -0.866848769845932 L 2.0431452714857032 -0.8673247857057205 C 1.9557487596285406 -1.0629673040787804 1.823987569639093 -1.2723190792137482 1.6311059432528061 -1.4195983862323" fill="#574848" transform="matrix(1,0,0,1,0,0)" fill-rule="nonzero"></path></g><g clip-path="url(#a041ec5e3-1bb8-45d2-b877-1dbea2537e113724c9c5-26bf-406a-8255-6c1d8d4734f2)"><path d=" M 2.81181568187212 -1.4507298234624657 L 2.811339666012331 -1.4462552743804542 L 2.811339666012331 -1.4457792585206657 C 2.8218120149276773 -1.4536811217931545 2.83285558287477 -1.4611069692058543 2.8438039476499046 -1.4679615975868083 C 3.0520132847213803 -1.6014364446714944 3.2940197478378375 -1.6438018561926682 3.5098453386659285 -1.6462771386635682 L 3.5098453386659285 -1.6467531545233567 C 3.5136534655442357 -1.7423371391688807 3.5103213545257166 -1.8324945430128163 3.5027051007691012 -1.9137980518646867 C 3.4945521066446457 -2.0130351148189756 3.4798588910458106 -2.111625955417212 3.4587212353246466 -2.208927884933538 L 3.4587212353246466 -2.209403900793325 C 3.449676933988666 -2.25129329645471 3.443012711951628 -2.274903683100218 3.443012711951628 -2.274903683100218 L 3.4353964581950125 -2.273380432348895 C 3.3790361803960574 -2.2655737722483638 3.0219290823827496 -2.2064526024626363 2.701570408745111 -2.001956189097511 C 2.7693550671789886 -1.8467750188064704 2.815623808750428 -1.6718867919201876 2.813243729451485 -1.4881446700418393 C 2.813243729451485 -1.4753874449995084 2.812767713591697 -1.463011032645008 2.81181568187212 -1.4507298234624657" fill="#ede8e8" transform="matrix(1,0,0,1,0,0)" fill-rule="nonzero"></path></g><g clip-path="url(#a041ec5e3-1bb8-45d2-b877-1dbea2537e113724c9c5-26bf-406a-8255-6c1d8d4734f2)"><path d=" M 2.811339666012331 -1.445684055348708 L 2.811339666012331 -1.4461600712084965 L 2.81181568187212 -1.4506346202905083 C 2.812767713591697 -1.4629158294730507 2.813243729451485 -1.475197038655593 2.813243729451485 -1.4880494668698816 C 2.815623808750428 -1.67179158874823 2.7693550671789886 -1.8466798156345128 2.701570408745111 -2.0018609859255534 C 2.6967150469752683 -1.9993857034546532 2.692430904237172 -1.9964344051239646 2.687670745639287 -1.9934831067932761 C 2.5521014287715325 -1.9048489537006636 2.4241483656603924 -1.7900339283196853 2.329611615906402 -1.6412313705498105 C 2.313384049528879 -1.6157937873770374 2.2982333610154635 -1.589685053712409 2.284199702882585 -1.5629743632005908 L 2.284199702882585 -1.5624031441688404 L 2.279439544284698 -1.5530732333169863 C 2.326279504887883 -1.4250249670338886 2.3777844209169956 -1.235856264353952 2.3777844209169956 -1.0249812384676609 C 2.3777844209169956 -0.9756659953935756 2.3749283257582645 -0.9278740030708135 2.3701681671603803 -0.8811292456395863 C 2.4632768693350044 -1.0841024082533885 2.6037015479726024 -1.3003088117693102 2.811339666012331 -1.445684055348708" fill="#b9625d" transform="matrix(1,0,0,1,0,0)" fill-rule="nonzero"></path></g><g clip-path="url(#a041ec5e3-1bb8-45d2-b877-1dbea2537e113724c9c5-26bf-406a-8255-6c1d8d4734f2)"><path d=" M 3.509750135493971 -1.6462771386635682 L 3.509274119634183 -1.6378992595312911 C 3.4997538024384127 -1.4192175735444694 3.4514857942558628 -1.1762590787084357 3.3192485884066265 -0.9693825860443679 C 3.0265940378086773 -0.5102176876924123 2.4178649563111847 -0.3728395105574607 2.2498313578058564 -0.3427553082188295 C 2.244023964316437 -0.3418032764992529 2.238311773998975 -0.340756041607718 2.2340276312608784 -0.3402800257479299 C 2.2281982935465705 -0.33906274571227524 2.2223227717191465 -0.3380781988114636 2.2164150444487065 -0.3373287274172414 L 2.213463746118017 -0.33685271155745244 L 2.2110836668190745 -0.3363766956976644 L 2.209655619239709 -0.3334253973669754 C 2.292291972498987 -0.3078157441103557 2.9745179027478184 -0.11169720987750775 3.469193584239993 -0.4290093820124996 C 3.996714360057573 -0.7673614551501426 4.1118149949544245 -1.5610702997614325 4.1118149949544245 -1.5610702997614325 C 4.1118149949544245 -1.5610702997614325 3.840581158046956 -1.6507516877455797 3.509750135493971 -1.6462771386635682" fill="#ede8e8" transform="matrix(1,0,0,1,0,0)" fill-rule="nonzero"></path></g><g clip-path="url(#a041ec5e3-1bb8-45d2-b877-1dbea2537e113724c9c5-26bf-406a-8255-6c1d8d4734f2)"><path d=" M 2.2164150444487047 -0.33732872741724096 C 2.2206991871868014 -0.3378047432770299 2.226887393364051 -0.3388519781685644 2.234122834432836 -0.3402800257479299 C 2.238406977170932 -0.340756041607718 2.244119167488394 -0.3418032764992529 2.2498313578058555 -0.3427553082188295 C 2.4178649563111847 -0.3728395105574607 3.0265940378086764 -0.5102176876924123 3.3192485884066256 -0.9693825860443679 C 3.4515809974278193 -1.1762590787084357 3.4997538024384127 -1.4191223703725115 3.509274119634182 -1.6378992595312911 L 3.50975013549397 -1.6462771386635682 C 3.2940197478378375 -1.6438018561926682 3.051918081549423 -1.6014364446714946 2.8438039476499046 -1.4679615975868086 C 2.8326747146270446 -1.4610283477412056 2.8218436140308487 -1.4536276250464444 2.811339666012331 -1.4457792585206655 C 2.8067890705594554 -1.360182890386871 2.7925119346679113 -1.2753824523733341 2.768783848147242 -1.1930148369729883 C 2.6594906067398103 -0.8053475207612621 2.3768323891974186 -0.5004117609807701 2.258875659141836 -0.3851207197400033 C 2.251735421245009 -0.3787421072188377 2.2455472150677593 -0.3722682915257147 2.239835024750297 -0.36741292975587214 C 2.234122834432836 -0.3619863489542836 2.2292674726629933 -0.3570357840124836 2.2249833299248976 -0.35313245396221804 L 2.2149869968693396 -0.344754574829941 L 2.211178869991032 -0.3363766956976644 L 2.213558949289974 -0.33685271155745244 Z" fill="#b9625d" transform="matrix(1,0,0,1,0,0)" fill-rule="nonzero"></path></g><g clip-path="url(#a041ec5e3-1bb8-45d2-b877-1dbea2537e113724c9c5-26bf-406a-8255-6c1d8d4734f2)"><path d=" M 2.811339666012331 -1.445684055348708 C 2.6037015479726024 -1.3003088117693102 2.4632768693350044 -1.0841024082533885 2.3701681671603803 -0.8811292456395863 C 2.3419880282609027 -0.6160836149093676 2.246023230927548 -0.40568460488286506 2.2149869968693396 -0.34465937165798355 L 2.225078533096855 -0.3530372507902606 C 2.229362675834951 -0.3569405808405257 2.234122834432836 -0.36189114578232573 2.239835024750297 -0.3673177265839147 C 2.2455472150677593 -0.3722682915257147 2.251830624416967 -0.3786469040468803 2.2589708623137943 -0.3850255165680454 C 2.3768323891974186 -0.5003165578088122 2.6594906067398103 -0.8052523175893045 2.7688790513191996 -1.1929196338010322 C 2.7917278125890466 -1.273747126793114 2.8070555232742347 -1.3580019339756724 2.811339666012331 -1.445684055348708" fill="#c5b3b3" transform="matrix(1,0,0,1,0,0)" fill-rule="nonzero"></path></g><g clip-path="url(#a041ec5e3-1bb8-45d2-b877-1dbea2537e113724c9c5-26bf-406a-8255-6c1d8d4734f2)"><path d=" M 2.239835024750297 -0.36731772658391426 C 2.2455472150677593 -0.3722682915257143 2.251735421245009 -0.37864690404687984 2.2589708623137943 -0.3850255165680454 C 2.3768323891974186 -0.5003165578088122 2.6594906067398103 -0.805252317589304 2.7688790513191996 -1.1930148369729896 C 2.7917278125890466 -1.2737471267931137 2.8070555232742347 -1.3580019339756721 2.811339666012331 -1.445684055348708 C 2.603606344800644 -1.3004040149412677 2.4632768693350036 -1.0841024082533883 2.3701681671603803 -0.8811292456395858 C 2.3419880282609027 -0.6160836149093671 2.2460232309275474 -0.4057798080548225 2.2149869968693396 -0.34465937165798355 L 2.225078533096855 -0.3530372507902606 C 2.229362675834951 -0.3569405808405257 2.234122834432836 -0.36189114578232573 2.239835024750297 -0.36731772658391426" fill="#574848" transform="matrix(1,0,0,1,0,0)" fill-rule="nonzero"></path></g></g></g><defs><clipPath id="SvgjsClipPath1001"><path d=" M 0.2952150343424511 -2.6380085809468605 h 3.8165999606119727 v 2.3880085809468605 h -3.8165999606119727 Z"></path></clipPath><clipPath id="a041ec5e3-1bb8-45d2-b877-1dbea2537e113724c9c5-26bf-406a-8255-6c1d8d4734f2"><path d=" M 0.2952150343424516 -0.2499322155600785 L 4.111814994954424 -0.2499322155600785 L 4.111814994954424 -2.6380085809468605 L 0.2952150343424516 -2.6380085809468605 Z"></path></clipPath></defs></svg>